<svg width="28" height="28" viewBox="0 0 28 28" fill="none" xmlns="http://www.w3.org/2000/svg">
  <!-- Purple background -->
  <rect width="28" height="28" rx="2" fill="#BFA4FF"/>

  <!-- Scaled and positioned C# logo -->
  <g transform="translate(2.25, 1) scale(0.09)">
    <!-- C# text -->
    <g fill="#011221">
      <path d="M201.892 116.294v13.474h13.474v-13.474h6.737v13.474h13.474v6.737h-13.474v13.473h13.474v6.737h-13.474v13.474h-6.737v-13.474h-13.474v13.474h-6.737v-13.474h-13.473v-6.737h13.473v-13.473h-13.473v-6.737h13.473v-13.474h6.737zm13.474 20.21h-13.474v13.474h13.474z"/>
      <path d="M128.457 48.626c35.144 0 65.827 19.086 82.262 47.456l-.16-.273-41.35 23.808c-8.146-13.793-23.08-23.102-40.213-23.294l-.54-.003c-26.125 0-47.305 21.18-47.305 47.305a47.08 47.08 0 0 0 6.239 23.47c8.154 14.235 23.483 23.836 41.067 23.836 17.693 0 33.109-9.723 41.221-24.11l-.197.345 41.287 23.918c-16.255 28.13-46.518 47.157-81.253 47.536l-1.058.006c-35.255 0-66.025-19.204-82.419-47.724-8.003-13.923-12.582-30.064-12.582-47.277 0-52.466 42.532-95 95-95z"/>
    </g>
  </g>
</svg>
