<svg width="28" height="28" viewBox="0 0 28 28" fill="none" xmlns="http://www.w3.org/2000/svg">
  <!-- Background -->
  <rect width="28" height="28" rx="2" fill="#FFD580"/>

  <!-- Python logo, moved left by 1, up by 0.5 -->
  <g transform="translate(0, -0.5) scale(0.9)">
    <path d="M15.885 2.1c-7.1 0-6.651 3.07-6.651 3.07V8.36h6.752v1H6.545S2 8.8 2 16.005s4.013 6.912 4.013 6.912H8.33V19.556s-.13-4.013 3.9-4.013h6.762s3.772.06 3.772-3.652V5.8s.572-3.712-6.842-3.712ZM12.153 4.237a1.214 1.214 0 1 1-1.183 1.244v-.02a1.214 1.214 0 0 1 1.214-1.214Z" fill="#011221"/>
    <path d="M16.085 29.91c7.1 0 6.651-3.08 6.651-3.08V23.65H15.985v-1h9.47S30 23.158 30 15.995s-4.013-6.912-4.013-6.912H23.64V12.4s.13 4.013-3.9 4.013H12.975S9.2 16.356 9.2 20.068V26.2s-.572 3.712 6.842 3.712h.04Zm3.732-2.147A1.214 1.214 0 1 1 21 26.519v.03a1.214 1.214 0 0 1-1.214 1.214Z" fill="#011221"/>
  </g>
</svg>
