<svg width="21" height="21" viewBox="0 0 21 21" fill="none" xmlns="http://www.w3.org/2000/svg">
  <path d="M4.983 7.5H1.5V20.5H4.983V7.5ZM3.24 1.5C2.0925 1.5 1.5 2.2 1.5 3.15C1.5 4.0725 2.0655 4.8 3.186 4.8H3.2115C4.3845 4.8 4.95 4.0725 4.95 3.15C4.9245 2.2 4.3845 1.5 3.24 1.5ZM19.5 12.75C19.5 9.4275 17.673 7.5 14.997 7.5C13.0815 7.5 12.087 8.55 11.625 9.3V7.5H8.141V20.5H11.625V13.575C11.625 11.85 12.4875 10.725 13.944 10.725C15.324 10.725 15.75 11.775 15.75 13.725V20.5H19.5V12.75Z" fill="#607B96"/>
</svg>
