<svg width="38" height="42" viewBox="0 0 38.000089 42.000031" fill="none" xmlns="http://www.w3.org/2000/svg">
  <!-- Outer hexagonal frame -->
  <path d="M17.903 0.286c.679-.381 1.515-.381 2.193 0 3.355 1.883 13.451 7.551 16.807 9.434.679.38 1.097 1.084 1.097 1.846v18.867c0 .762-.418 1.466-1.097 1.847-3.355 1.883-13.451 7.551-16.807 9.434-.679.381-1.515.381-2.193 0-3.355-1.883-13.451-7.551-16.807-9.434C.418 31.9 0 31.197 0 30.435V11.568c0-.762.418-1.466 1.097-1.847 3.354-1.883 13.452-7.551 16.806-9.434z" fill="#607B96"/>
  
  <!-- Inner front overlay (slight bevel look) -->
  <path d="M0.304 31.404c-.266-.356-.304-.694-.304-1.149V11.496c0-.758.417-1.458 1.094-1.836 3.343-1.872 13.405-7.507 16.748-9.38.677-.379 1.594-.371 2.271.008 3.343 1.872 13.371 7.459 16.714 9.331.27.152.476.335.66.576z" fill="#607B96"/>

  <!-- "C" shape in white for contrast -->
  <path d="M19 7c7.727 0 14 6.273 14 14s-6.273 14-14 14-14-6.273-14-14 6.273-14 14-14zm0 7c-3.864 0-7 3.136-7 7s3.136 7 7 7 7-3.137 7-7-3.137-7-7-7z" fill="white"/>
  
  <!-- Right-side overlay shadow -->
  <path d="M37.485 10.205c.516.483.506 1.211.506 1.784v18.384c.004.396-.127.813-.323 1.127L18.593 21z" fill="#607B96"/>
</svg>

