<svg width="48" height="48" viewBox="0 0 48 48" fill="none" xmlns="http://www.w3.org/2000/svg">
  <!-- Clean Azure shape, flat fill -->
  <path d="M23.9982 33.6C34.6019 33.6 43.1982 36.8234 43.1982 40.8V26.3998C43.1982 22.4234 34.6019 19.1998 23.9982 19.1998H19.1982V33.6H23.9982Z" fill="#607B96"/>
  <path d="M43.1988 26.3998C43.1988 30.3763 34.6028 33.5997 23.9988 33.5997C17.5318 33.5997 11.8116 32.4008 8.33267 30.5632C6.44883 29.728 4.79883 30.9936 4.79883 32.7091V40.7997C4.79883 44.7763 13.395 47.9997 23.9988 47.9997C34.6028 47.9997 43.1988 44.7763 43.1988 40.7997V26.3998Z" fill="#607B96"/>
  <path d="M23.9988 0C34.6026 0 43.1989 3.22355 43.1989 7.2V15.3562C43.1989 16.4719 42.0362 18.4313 39.6621 17.4349C36.1826 15.5983 30.4639 14.4 23.9988 14.4C13.395 14.4 4.79883 17.6235 4.79883 21.6V7.2C4.79883 3.22355 13.395 0 23.9988 0Z" fill="#607B96"/>
  <path d="M23.9988 14.3998C13.395 14.3998 4.79883 11.1763 4.79883 7.19983V21.5998C4.79883 25.5763 13.395 28.8 23.9988 28.8H25.1988C27.1871 28.8 28.7989 27.188 28.7989 25.1998V17.9998C28.7989 16.0116 27.1871 14.3998 25.1988 14.3998H23.9988Z" fill="#607B96"/>
</svg>
